<svg xmlns="http://www.w3.org/2000/svg" width="16.753" height="15.474" viewBox="0 0 16.753 15.474">
  <g id="Icon_ionic-ios-cart" data-name="Icon ionic-ios-cart" transform="translate(-3.382 -4.493)">
    <path id="Path_32" data-name="Path 32" d="M11.5,29.092a.967.967,0,1,1-.967-.967A.967.967,0,0,1,11.5,29.092Z" transform="translate(-2.639 -10.092)" fill="#543000"/>
    <path id="Path_33" data-name="Path 33" d="M27.281,29.092a.967.967,0,1,1-.967-.967A.967.967,0,0,1,27.281,29.092Z" transform="translate(-9.38 -10.092)" fill="#543000"/>
    <path id="Path_34" data-name="Path 34" d="M20.129,7.244a.237.237,0,0,0-.209-.169L6.8,5.806a.4.4,0,0,1-.3-.189A4.1,4.1,0,0,0,6,4.868c-.31-.379-.894-.367-1.966-.375a.587.587,0,0,0-.657.568.576.576,0,0,0,.628.568,5.353,5.353,0,0,1,1.047.077c.189.056.342.367.4.637a.015.015,0,0,0,0,.012c.008.048.081.411.081.415l1.611,8.524a3.133,3.133,0,0,0,.584,1.438,1.608,1.608,0,0,0,1.325.653h9.532a.573.573,0,0,0,.58-.54.561.561,0,0,0-.564-.588H9.054a.468.468,0,0,1-.334-.113A1.808,1.808,0,0,1,8.257,15.1l-.173-.955a.022.022,0,0,1,.016-.024l11.187-1.893a.235.235,0,0,0,.2-.209l.645-4.665A.23.23,0,0,0,20.129,7.244Z" fill="#543000"/>
  </g>
</svg>
