<svg xmlns="http://www.w3.org/2000/svg" width="60" height="60" viewBox="0 0 60 60">
  <g id="Group_1044" data-name="Group 1044" transform="translate(-239 -1339)">
    <circle id="Ellipse_30" data-name="Ellipse 30" cx="30" cy="30" r="30" transform="translate(239 1339)" fill="#e8f2e5"/>
    <path id="Icon_zocial-email" data-name="Icon zocial-email" d="M.072,17.686V5.391q0-.021.064-.406l7.236,6.19L.157,18.113a1.809,1.809,0,0,1-.085-.427ZM1.033,4.132A.92.92,0,0,1,1.4,4.068H20.884a1.209,1.209,0,0,1,.384.064L14.01,10.344l-.961.768-1.9,1.558-1.9-1.558-.961-.768Zm.021,14.814,7.279-6.98L11.15,14.25l2.818-2.284,7.279,6.98a1.025,1.025,0,0,1-.363.064H1.4a.967.967,0,0,1-.342-.064Zm13.874-7.77,7.215-6.19a1.274,1.274,0,0,1,.064.406V17.686a1.636,1.636,0,0,1-.064.427Z" transform="translate(257.86 1357.461)" fill="#543000"/>
  </g>
</svg>
