<svg xmlns="http://www.w3.org/2000/svg" width="60" height="60" viewBox="0 0 60 60">
  <g id="Group_1042" data-name="Group 1042" transform="translate(-239 -1078)">
    <circle id="Ellipse_29" data-name="Ellipse 29" cx="30" cy="30" r="30" transform="translate(239 1078)" fill="#e8f2e5"/>
    <path id="Icon_material-phone" data-name="Icon material-phone" d="M8.38,12.849a16.236,16.236,0,0,0,7.063,7.063L17.8,17.554a1.066,1.066,0,0,1,1.093-.257,12.226,12.226,0,0,0,3.826.611,1.075,1.075,0,0,1,1.072,1.072V22.72a1.075,1.075,0,0,1-1.072,1.072A18.219,18.219,0,0,1,4.5,5.572,1.075,1.075,0,0,1,5.572,4.5H9.323a1.075,1.075,0,0,1,1.072,1.072A12.176,12.176,0,0,0,11.006,9.4a1.076,1.076,0,0,1-.268,1.093Z" transform="translate(254.854 1093.854)" fill="#543000"/>
  </g>
</svg>
