<svg xmlns="http://www.w3.org/2000/svg" width="17.745" height="17.741" viewBox="0 0 17.745 17.741">
  <path id="Icon_awesome-instagram" data-name="Icon awesome-instagram" d="M8.869,6.56a4.549,4.549,0,1,0,4.549,4.549A4.541,4.541,0,0,0,8.869,6.56Zm0,7.506a2.957,2.957,0,1,1,2.957-2.957,2.963,2.963,0,0,1-2.957,2.957Zm5.8-7.692A1.061,1.061,0,1,1,13.6,5.313,1.058,1.058,0,0,1,14.665,6.374ZM17.677,7.45a5.25,5.25,0,0,0-1.433-3.717A5.285,5.285,0,0,0,12.527,2.3c-1.465-.083-5.855-.083-7.32,0A5.277,5.277,0,0,0,1.49,3.729,5.268,5.268,0,0,0,.057,7.446c-.083,1.465-.083,5.855,0,7.32A5.25,5.25,0,0,0,1.49,18.483a5.292,5.292,0,0,0,3.717,1.433c1.465.083,5.855.083,7.32,0a5.25,5.25,0,0,0,3.717-1.433,5.285,5.285,0,0,0,1.433-3.717c.083-1.465.083-5.851,0-7.316Zm-1.892,8.887A2.994,2.994,0,0,1,14.1,18.024c-1.168.463-3.939.356-5.23.356s-4.066.1-5.229-.356a2.994,2.994,0,0,1-1.686-1.686C1.49,15.17,1.6,12.4,1.6,11.108s-.1-4.066.356-5.229A2.994,2.994,0,0,1,3.64,4.192c1.168-.463,3.939-.356,5.229-.356s4.066-.1,5.23.356a2.994,2.994,0,0,1,1.686,1.686c.463,1.168.356,3.939.356,5.229S16.248,15.174,15.785,16.338Z" transform="translate(0.005 -2.238)" fill="#fff"/>
</svg>
