<svg xmlns="http://www.w3.org/2000/svg" width="15.503" height="15.523" viewBox="0 0 15.503 15.523">
  <path id="Icon_zocial-call" data-name="Icon zocial-call" d="M3.3,5.993a1.142,1.142,0,0,1,.291-.62L5.916,3.047q.272-.233.407.078L8.2,6.652a.508.508,0,0,1-.1.6l-.853.853a.964.964,0,0,0-.271.6,2.959,2.959,0,0,0,.6,1.492,12.745,12.745,0,0,0,1.182,1.551l.6.62c.181.181.413.4.7.669a11.7,11.7,0,0,0,1.4,1.047,3.144,3.144,0,0,0,1.541.649.844.844,0,0,0,.62-.252l1.008-1.008a.426.426,0,0,1,.581-.078l3.392,2a.283.283,0,0,1,.155.2.248.248,0,0,1-.078.223l-2.326,2.326a1.139,1.139,0,0,1-.62.29,4.689,4.689,0,0,1-2.142-.262,9.692,9.692,0,0,1-2.209-1.056q-1.018-.659-1.89-1.337t-1.4-1.163l-.5-.485q-.194-.194-.514-.533T5.974,12.262A19.465,19.465,0,0,1,4.6,10.315,11.363,11.363,0,0,1,3.59,8.154,4.6,4.6,0,0,1,3.3,5.993Z" transform="translate(-3.267 -2.947)" fill="#fff"/>
</svg>
