<svg xmlns="http://www.w3.org/2000/svg" width="17.735" height="17.735" viewBox="0 0 17.735 17.735">
  <path id="Icon_ionic-logo-whatsapp" data-name="Icon ionic-logo-whatsapp" d="M11.278,2.25a8.673,8.673,0,0,0-8.706,8.639A8.55,8.55,0,0,0,3.821,15.35L2.25,19.985l4.82-1.531a8.721,8.721,0,0,0,12.915-7.565A8.673,8.673,0,0,0,11.278,2.25Zm4.329,11.92a2.249,2.249,0,0,1-1.54.993c-.408.022-.42.316-2.646-.651a9.084,9.084,0,0,1-3.671-3.471A4.27,4.27,0,0,1,6.93,8.727a2.467,2.467,0,0,1,.847-1.81.853.853,0,0,1,.6-.254c.175,0,.289-.005.419,0s.324-.027.493.421.572,1.55.623,1.662a.4.4,0,0,1,0,.387,1.512,1.512,0,0,1-.236.36c-.116.125-.244.279-.348.374s-.236.221-.115.446A6.662,6.662,0,0,0,10.4,11.886a6.075,6.075,0,0,0,1.746,1.161c.218.119.349.106.484-.037s.58-.623.736-.838.3-.173.5-.092,1.273.655,1.491.774.364.179.416.273A1.828,1.828,0,0,1,15.608,14.17Z" transform="translate(-2.25 -2.25)" fill="#fff"/>
</svg>
