<svg xmlns="http://www.w3.org/2000/svg" width="20.163" height="15.125" viewBox="0 0 20.163 15.125">
  <path id="Icon_ionic-logo-youtube" data-name="Icon ionic-logo-youtube" d="M20.031,7.84a3.062,3.062,0,0,0-2.915-3.2c-2.182-.1-4.407-.142-6.68-.142H9.728c-2.269,0-4.5.039-6.68.142A3.068,3.068,0,0,0,.138,7.848C.039,9.25,0,10.652,0,12.054s.039,2.8.134,4.21a3.072,3.072,0,0,0,2.911,3.21c2.292.106,4.644.154,7.034.15s4.738-.039,7.034-.15a3.072,3.072,0,0,0,2.915-3.21c.095-1.406.138-2.808.134-4.214S20.126,9.246,20.031,7.84ZM8.153,15.918V8.179l5.711,3.868Z" transform="translate(0 -4.5)" fill="#fff"/>
</svg>
