<svg xmlns="http://www.w3.org/2000/svg" width="21.627" height="19.976" viewBox="0 0 21.627 19.976">
  <g id="Icon_ionic-ios-cart" data-name="Icon ionic-ios-cart" transform="translate(-3.382 -4.493)">
    <path id="Path_32" data-name="Path 32" d="M12.059,29.373a1.248,1.248,0,1,1-1.248-1.248,1.248,1.248,0,0,1,1.248,1.248Z" transform="translate(-1.609 -6.153)" fill="#fff"/>
    <path id="Path_33" data-name="Path 33" d="M27.844,29.373A1.248,1.248,0,1,1,26.6,28.125a1.248,1.248,0,0,1,1.248,1.248Z" transform="translate(-5.719 -6.153)" fill="#fff"/>
    <path id="Path_34" data-name="Path 34" d="M25,8.045a.306.306,0,0,0-.27-.218L7.792,6.188a.521.521,0,0,1-.39-.244,5.3,5.3,0,0,0-.634-.967c-.4-.489-1.155-.473-2.538-.484a.758.758,0,0,0-.848.733.743.743,0,0,0,.811.733,6.91,6.91,0,0,1,1.352.1c.244.073.442.473.515.822a.019.019,0,0,0,.005.016c.01.062.1.53.1.536l2.08,11A4.044,4.044,0,0,0,9,20.292a2.075,2.075,0,0,0,1.711.843h12.3a.739.739,0,0,0,.749-.7.725.725,0,0,0-.728-.759H10.7a.6.6,0,0,1-.432-.146,2.334,2.334,0,0,1-.6-1.352l-.224-1.233a.029.029,0,0,1,.021-.031l14.442-2.444a.3.3,0,0,0,.255-.27L25,8.18A.3.3,0,0,0,25,8.045Z" fill="#fff"/>
  </g>
</svg>
